<?xml version="1.0" encoding="UTF-8" standalone="no"?>
<!DOCTYPE svg PUBLIC "-//W3C//DTD SVG 1.1//EN" "http://www.w3.org/Graphics/SVG/1.1/DTD/svg11.dtd">
<svg width="100%" height="100%" viewBox="0 0 256 256" version="1.1" xmlns="http://www.w3.org/2000/svg" xmlns:xlink="http://www.w3.org/1999/xlink" xml:space="preserve" xmlns:serif="http://www.serif.com/" style="fill-rule:evenodd;clip-rule:evenodd;stroke-linejoin:round;stroke-miterlimit:2;">
    <g transform="matrix(1,0,0,1,-525.7,-423.7)">
        <g transform="matrix(0.836653,0,0,1.16307,110.423,-94.1331)">
            <rect x="496.355" y="445.228" width="305.981" height="220.106" style="fill:rgb(66,66,66);"/>
        </g>
        <g id="PlayerBase" transform="matrix(0.944245,0,0,0.944245,123.114,79.0506)">
            <circle cx="527.999" cy="500.597" r="67.779" style="fill:rgb(119,178,255);fill-opacity:0;"/>
            <clipPath id="_clip1">
                <circle cx="527.999" cy="500.597" r="67.779"/>
            </clipPath>
            <g clip-path="url(#_clip1)">
                <g id="Base" transform="matrix(0.984375,0,0,0.984375,8.27728,7.78264)">
                    <circle cx="527.999" cy="500.597" r="67.779" style="fill:rgb(119,178,255);"/>
                    <path d="M527.999,432.818C565.407,432.818 595.778,463.189 595.778,500.597C595.778,538.005 565.407,568.376 527.999,568.376C490.591,568.376 460.22,538.005 460.22,500.597C460.22,463.189 490.591,432.818 527.999,432.818ZM527.999,441.425C560.657,441.425 587.171,467.939 587.171,500.597C587.171,533.255 560.657,559.769 527.999,559.769C495.341,559.769 468.827,533.255 468.827,500.597C468.827,467.939 495.341,441.425 527.999,441.425Z" style="fill:rgb(111,120,255);"/>
                </g>
            </g>
            <path d="M527.999,432.818C565.407,432.818 595.778,463.189 595.778,500.597C595.778,538.005 565.407,568.376 527.999,568.376C490.591,568.376 460.22,538.005 460.22,500.597C460.22,463.189 490.591,432.818 527.999,432.818ZM527.999,437.054C563.069,437.054 591.542,465.527 591.542,500.597C591.542,535.667 563.069,564.14 527.999,564.14C492.929,564.14 464.456,535.667 464.456,500.597C464.456,465.527 492.929,437.054 527.999,437.054Z"/>
        </g>
        <g id="Tip" transform="matrix(1.31352,0,0,0.844404,-241.642,89.1298)">
            <path d="M728.268,542.5C728.268,540.452 727.745,538.489 726.814,537.041C725.884,535.593 724.621,534.78 723.305,534.78C709.866,534.78 672.904,534.78 659.835,534.78C657.265,534.78 655.182,538.02 655.182,542.018C655.182,546.293 655.182,551.689 655.182,555.964C655.182,559.962 657.265,563.202 659.835,563.202C672.904,563.202 709.866,563.202 723.305,563.202C724.621,563.202 725.884,562.389 726.814,560.941C727.745,559.493 728.268,557.53 728.268,555.482C728.268,551.451 728.268,546.531 728.268,542.5Z" style="fill:rgb(133,114,255);"/>
            <path d="M728.268,542.5C728.268,540.452 727.745,538.489 726.814,537.041C725.884,535.593 724.621,534.78 723.305,534.78C709.866,534.78 672.904,534.78 659.835,534.78C657.265,534.78 655.182,538.02 655.182,542.018C655.182,546.293 655.182,551.689 655.182,555.964C655.182,559.962 657.265,563.202 659.835,563.202C672.904,563.202 709.866,563.202 723.305,563.202C724.621,563.202 725.884,562.389 726.814,560.941C727.745,559.493 728.268,557.53 728.268,555.482C728.268,551.451 728.268,546.531 728.268,542.5ZM725.223,542.5L725.223,555.482C725.223,556.273 725.021,557.032 724.661,557.591C724.301,558.151 723.814,558.465 723.305,558.465C709.866,558.465 672.904,558.465 659.835,558.465C658.947,558.465 658.227,557.345 658.227,555.964C658.227,555.964 658.227,542.018 658.227,542.018C658.227,540.637 658.947,539.517 659.835,539.517C672.904,539.517 709.866,539.517 723.305,539.517C723.814,539.517 724.301,539.831 724.661,540.391C725.021,540.95 725.223,541.709 725.223,542.5Z"/>
        </g>
        <g id="Center-Point" serif:id="Center Point" transform="matrix(0.797683,0,0,0.797683,120.707,115.529)">
            <circle cx="629.314" cy="548.051" r="20.058" style="fill:rgb(156,101,255);"/>
            <path d="M629.314,527.993C640.384,527.993 649.372,536.98 649.372,548.051C649.372,559.121 640.384,568.109 629.314,568.109C618.244,568.109 609.256,559.121 609.256,548.051C609.256,536.98 618.244,527.993 629.314,527.993ZM629.314,533.007C637.617,533.007 644.358,539.748 644.358,548.051C644.358,556.353 637.617,563.094 629.314,563.094C621.011,563.094 614.27,556.353 614.27,548.051C614.27,539.748 621.011,533.007 629.314,533.007Z"/>
        </g>
        <g id="Bullet" transform="matrix(0.59035,0,0,1.4083,297.15,-223.666)">
            <path d="M786.602,550.297C786.602,549.111 785.478,547.974 783.478,547.135C781.478,546.297 778.765,545.826 775.936,545.826C763.789,545.826 744.562,545.826 736.339,545.826C735.293,545.826 734.291,546 733.551,546.31C732.812,546.62 732.397,547.04 732.397,547.478C732.397,549.633 732.397,553.38 732.397,555.535C732.397,555.973 732.812,556.393 733.551,556.703C734.291,557.013 735.293,557.187 736.339,557.187C744.562,557.187 763.789,557.187 775.936,557.187C778.765,557.187 781.478,556.716 783.478,555.877C785.478,555.039 786.602,553.902 786.602,552.716C786.602,551.921 786.602,551.092 786.602,550.297Z" style="fill:rgb(255,215,116);"/>
            <path d="M786.602,550.297C786.602,549.111 785.478,547.974 783.478,547.135C781.478,546.297 778.765,545.826 775.936,545.826C763.789,545.826 744.562,545.826 736.339,545.826C735.293,545.826 734.291,546 733.551,546.31C732.812,546.62 732.397,547.04 732.397,547.478C732.397,549.633 732.397,553.38 732.397,555.535C732.397,555.973 732.812,556.393 733.551,556.703C734.291,557.013 735.293,557.187 736.339,557.187C744.562,557.187 763.789,557.187 775.936,557.187C778.765,557.187 781.478,556.716 783.478,555.877C785.478,555.039 786.602,553.902 786.602,552.716C786.602,551.921 786.602,551.092 786.602,550.297ZM739.173,548.666L775.936,548.666C776.968,548.666 777.957,548.838 778.687,549.144C779.417,549.45 779.826,549.864 779.826,550.297L779.826,552.716C779.826,553.148 779.417,553.563 778.687,553.869C777.957,554.175 776.968,554.347 775.936,554.347L739.173,554.347L739.173,548.666Z"/>
        </g>
        <g id="Shoot-Effect" serif:id="Shoot Effect" transform="matrix(1.25992,0,0,1.25992,-186.62,-147.45)">
            <path d="M722.855,548.783C722.855,546.262 721.854,543.844 720.071,542.062C718.288,540.279 715.87,539.277 713.349,539.277L700.614,539.277C698.092,539.277 695.674,540.279 693.892,542.062C692.109,543.844 691.107,546.262 691.107,548.783L691.107,561.519C691.107,564.04 692.109,566.458 693.892,568.241C695.674,570.024 698.092,571.025 700.614,571.025L713.349,571.025C715.87,571.025 718.288,570.024 720.071,568.241C721.854,566.458 722.855,564.04 722.855,561.519L722.855,548.783Z" style="fill:rgb(255,224,98);"/>
            <path d="M722.855,548.783C722.855,546.262 721.854,543.844 720.071,542.062C718.288,540.279 715.87,539.277 713.349,539.277L700.614,539.277C698.092,539.277 695.674,540.279 693.892,542.062C692.109,543.844 691.107,546.262 691.107,548.783L691.107,561.519C691.107,564.04 692.109,566.458 693.892,568.241C695.674,570.024 698.092,571.025 700.614,571.025L713.349,571.025C715.87,571.025 718.288,570.024 720.071,568.241C721.854,566.458 722.855,564.04 722.855,561.519L722.855,548.783ZM719.681,548.783L719.681,561.519C719.681,563.198 719.014,564.809 717.826,565.996C716.639,567.183 715.028,567.85 713.349,567.85C709.322,567.85 704.64,567.85 700.614,567.85C698.934,567.85 697.324,567.183 696.137,565.996C694.949,564.809 694.282,563.198 694.282,561.519C694.282,557.492 694.282,552.81 694.282,548.783C694.282,547.104 694.949,545.494 696.137,544.306C697.324,543.119 698.934,542.452 700.614,542.452C704.64,542.452 709.322,542.452 713.349,542.452C715.028,542.452 716.639,543.119 717.826,544.306C719.014,545.494 719.681,547.104 719.681,548.783Z" style="fill:rgb(255,169,0);"/>
        </g>
    </g>
</svg>
